<?xml version="1.0" encoding="iso-8859-1"?>
<!-- Generator: Adobe Illustrator 19.0.0, SVG Export Plug-In . SVG Version: 6.00 Build 0)  -->
<svg version="1.1" id="Layer_1" xmlns="http://www.w3.org/2000/svg" xmlns:xlink="http://www.w3.org/1999/xlink" x="0px" y="0px"
	 viewBox="0 0 509.138 509.138" style="enable-background:new 0 0 509.138 509.138;" xml:space="preserve">
<path style="fill:#F85348;" d="M383.003,24.68c-25.77-15.258-56.964-17.971-85.785-10.172c-12.546,3.391-27.126,5.425-42.723,5.425
	s-30.177-2.034-42.723-5.425c-28.821-7.799-59.677-5.086-85.446,9.833C47.999,70.116-3.54,156.24,0.19,254.572
	c5.086,131.899,112.572,239.385,244.472,244.132c145.123,5.425,264.477-110.538,264.477-254.305
	C509.138,150.815,458.616,68.76,383.003,24.68z"/>
<path style="fill:#FE896F;" d="M387.411,45.025c-26.109-17.293-58.66-22.379-89.515-15.597c-13.224,3.052-28.143,4.747-43.401,4.747
	c-15.597,0-30.177-1.695-43.401-4.747c-30.856-6.781-63.746-1.695-89.854,15.936C56.137,89.104,13.414,163.7,15.109,248.468
	c2.034,126.135,104.095,230.57,230.23,235.317c136.646,5.086,248.879-104.095,248.879-239.385
	C494.219,161.327,451.835,88.087,387.411,45.025z"/>
<g>
	<path style="fill:#FE3606;" d="M200.921,372.569c-70.188-38.993-96.636-124.779-67.476-178.013s64.424-29.838,74.935-19.327
		c10.511,10.511,56.286-6.103,28.821-70.866c-12.546-29.838-44.079-33.907-72.562-30.177
		c-61.033,32.212-102.739,96.636-102.739,170.554c0,96.975,71.544,176.996,164.45,190.559
		C243.305,423.091,249.069,399.356,200.921,372.569z"/>
	<path style="fill:#FE3606;" d="M447.427,244.399c0-73.918-41.706-138.342-102.739-170.554c-28.821-3.73-60.016,0.339-72.562,30.177
		c-27.465,65.102,18.649,81.377,28.821,70.866c10.511-10.511,45.775-33.907,74.935,19.327
		c29.16,53.234,2.713,139.359-67.476,178.352c-48.148,26.787-42.384,50.183-25.091,62.389
		C375.883,421.395,447.427,341.035,447.427,244.399z"/>
</g>
<path style="fill:#FFB19D;" d="M352.148,200.998c9.155,4.069,14.241,37.637-1.356,75.613c-14.58,36.959-50.522,77.648-97.314,75.952
	c-46.792,1.695-82.734-39.332-97.314-75.952c-15.936-37.637-10.511-71.205-1.356-75.613c20.344-6.103,56.964,42.723,98.67,36.959
	C295.183,243.382,331.803,194.895,352.148,200.998z"/>
<g>
	<ellipse style="fill:#FBD303;" cx="189.053" cy="120.977" rx="9.494" ry="19.666"/>
	
		<ellipse transform="matrix(-0.6763 0.7366 -0.7366 -0.6763 324.2482 163.7059)" style="fill:#FBD303;" cx="126.156" cy="153.094" rx="10.172" ry="20.344"/>
	
		<ellipse transform="matrix(-0.2579 0.9662 -0.9662 -0.2579 328.2789 181.7999)" style="fill:#FBD303;" cx="94.32" cy="216.974" rx="9.155" ry="18.65"/>
	
		<ellipse transform="matrix(0.3074 0.9516 -0.9516 0.3074 347.6111 106.92)" style="fill:#FBD303;" cx="100.356" cy="292.254" rx="9.833" ry="19.667"/>
	
		<ellipse transform="matrix(0.6157 0.788 -0.788 0.6157 334.2192 31.5949)" style="fill:#FBD303;" cx="134.719" cy="358.439" rx="9.155" ry="18.649"/>
	
		<ellipse transform="matrix(0.8813 0.4725 -0.4725 0.8813 212.7443 -44.3616)" style="fill:#FBD303;" cx="194.686" cy="401.343" rx="7.798" ry="15.597"/>
	<ellipse style="fill:#FBD303;" cx="319.936" cy="120.977" rx="9.494" ry="19.666"/>
	
		<ellipse transform="matrix(0.6763 0.7366 -0.7366 0.6763 236.6858 -232.5867)" style="fill:#FBD303;" cx="382.992" cy="153.02" rx="10.172" ry="20.344"/>
	
		<ellipse transform="matrix(0.2579 0.9662 -0.9662 0.2579 517.8001 -239.1175)" style="fill:#FBD303;" cx="414.558" cy="217.512" rx="9.155" ry="18.65"/>
	
		<ellipse transform="matrix(-0.3074 0.9516 -0.9516 -0.3074 812.0957 -6.5848)" style="fill:#FBD303;" cx="408.444" cy="292.248" rx="9.833" ry="19.667"/>
	
		<ellipse transform="matrix(-0.6157 0.788 -0.788 -0.6157 888.126 284.2085)" style="fill:#FBD303;" cx="374.757" cy="358.678" rx="9.155" ry="18.649"/>
	
		<ellipse transform="matrix(-0.8813 0.4725 -0.4725 -0.8813 781.3189 606.4755)" style="fill:#FBD303;" cx="314.498" cy="401.356" rx="7.798" ry="15.597"/>
</g>
<g>
</g>
<g>
</g>
<g>
</g>
<g>
</g>
<g>
</g>
<g>
</g>
<g>
</g>
<g>
</g>
<g>
</g>
<g>
</g>
<g>
</g>
<g>
</g>
<g>
</g>
<g>
</g>
<g>
</g>
</svg>
